<svg xmlns="http://www.w3.org/2000/svg" viewBox="0 0 512 512">
  <defs>
    <linearGradient id="bg" x1="0%" y1="0%" x2="100%" y2="100%">
      <stop offset="0%" style="stop-color:#1a1a2e"/>
      <stop offset="100%" style="stop-color:#0f3460"/>
    </linearGradient>
    <linearGradient id="heart" x1="0%" y1="0%" x2="100%" y2="100%">
      <stop offset="0%" style="stop-color:#e94560"/>
      <stop offset="100%" style="stop-color:#ff6b6b"/>
    </linearGradient>
  </defs>
  <rect width="512" height="512" rx="96" fill="url(#bg)"/>
  <path d="M256 400c-8 0-15-3-21-8l-90-82c-45-41-65-75-65-115 0-60 45-105 100-105 35 0 65 20 76 50 11-30 41-50 76-50 55 0 100 45 100 105 0 40-20 74-65 115l-90 82c-6 5-13 8-21 8z" fill="url(#heart)"/>
</svg>
